<?xml version="1.0" encoding="utf-8"?>
<svg xmlns="http://www.w3.org/2000/svg" xmlns:xlink="http://www.w3.org/1999/xlink">

<symbol viewBox="0 0 22 21" id="arrow_btn" xmlns="http://www.w3.org/2000/svg"><path d="M21.124.277a.75.75 0 01.154.836l-8.485 19.092a.75.75 0 01-1.376-.01l-3.061-7.15-7.15-3.063a.75.75 0 01-.01-1.374L20.288.123a.75.75 0 01.834.154h.002zM3.376 9.28l5.845 2.505a.75.75 0 01.393.395l2.505 5.845 6.996-15.74L3.375 9.28z"/></symbol>

<symbol viewBox="0 0 16 16" class="bbi bbi-chat" id="chat" xmlns="http://www.w3.org/2000/svg"><path d="M2.678 11.894a1 1 0 01.287.801 10.97 10.97 0 01-.398 2c1.395-.323 2.247-.697 2.634-.893a1 1 0 01.71-.074A8.06 8.06 0 008 14c3.996 0 7-2.807 7-6 0-3.192-3.004-6-7-6S1 4.808 1 8c0 1.468.617 2.83 1.678 3.894zm-.493 3.905a21.682 21.682 0 01-.713.129c-.2.032-.352-.176-.273-.362a9.68 9.68 0 00.244-.637l.003-.01c.248-.72.45-1.548.524-2.319C.743 11.37 0 9.76 0 8c0-3.866 3.582-7 8-7s8 3.134 8 7-3.582 7-8 7a9.06 9.06 0 01-2.347-.306c-.52.263-1.639.742-3.468 1.105z"/></symbol>

<symbol viewBox="0 0 16 16" class="cbi cbi-chat-left-text" id="chat-left-text" xmlns="http://www.w3.org/2000/svg"><path fill-rule="evenodd" d="M14 1H2a1 1 0 00-1 1v11.586l2-2A2 2 0 014.414 11H14a1 1 0 001-1V2a1 1 0 00-1-1zM2 0a2 2 0 00-2 2v12.793a.5.5 0 00.854.353l2.853-2.853A1 1 0 014.414 12H14a2 2 0 002-2V2a2 2 0 00-2-2H2z"/><path fill-rule="evenodd" d="M3 3.5a.5.5 0 01.5-.5h9a.5.5 0 010 1h-9a.5.5 0 01-.5-.5zM3 6a.5.5 0 01.5-.5h9a.5.5 0 010 1h-9A.5.5 0 013 6zm0 2.5a.5.5 0 01.5-.5h5a.5.5 0 010 1h-5a.5.5 0 01-.5-.5z"/></symbol>

<symbol viewBox="0 0 16 16" class="ebi ebi-cursor" id="cursor" xmlns="http://www.w3.org/2000/svg"><path d="M14.082 2.182a.5.5 0 01.103.557L8.528 15.467a.5.5 0 01-.917-.007L5.57 10.694.803 8.652a.5.5 0 01-.006-.916l12.728-5.657a.5.5 0 01.556.103zM2.25 8.184l3.897 1.67a.5.5 0 01.262.263l1.67 3.897L12.743 3.52 2.25 8.184z"/></symbol><symbol viewBox="0 0 15 25" id="logohex" xmlns="http://www.w3.org/2000/svg"><g clip-path="url(#fclip0_4212_63)"><path d="M13.294 24.984h-.583a.867.867 0 01-.607-.246.833.833 0 01-.251-.595v-7.02H3.104v7.02c0 .223-.09.437-.251.595a.867.867 0 01-.607.246h-.572a.867.867 0 01-.607-.246.832.832 0 01-.251-.595V7.978l2.288 1.495v5.816h8.748V9.474l2.3-1.495v16.165c0 .223-.09.437-.251.595a.867.867 0 01-.607.246z"/><path d="M.095 4.194l7.39 4.193 7.388-4.193L7.484 0 .095 4.194z"/></g><defs><clipPath id="fclip0_4212_63"><path d="M0 0h15v25H0z"/></clipPath></defs></symbol>

<symbol viewBox="0 0 16 16" class="gbi gbi-people" id="people" xmlns="http://www.w3.org/2000/svg"><path fill-rule="evenodd" d="M15 14s1 0 1-1-1-4-5-4-5 3-5 4 1 1 1 1h8zm-7.978-1h7.956a.274.274 0 00.014-.002l.008-.002c-.002-.264-.167-1.03-.76-1.72C13.688 10.629 12.718 10 11 10c-1.717 0-2.687.63-3.24 1.276-.593.69-.759 1.457-.76 1.72a1.05 1.05 0 00.022.004zM11 7a2 2 0 100-4 2 2 0 000 4zm3-2a3 3 0 11-6 0 3 3 0 016 0zM6.936 9.28a5.88 5.88 0 00-1.23-.247A7.35 7.35 0 005 9c-4 0-5 3-5 4 0 .667.333 1 1 1h4.216A2.238 2.238 0 015 13c0-1.01.377-2.042 1.09-2.904.243-.294.526-.569.846-.816zM4.92 10c-1.668.02-2.615.64-3.16 1.276C1.163 11.97 1 12.739 1 13h3c0-1.045.323-2.086.92-3zM1.5 5.5a3 3 0 116 0 3 3 0 01-6 0zm3-2a2 2 0 100 4 2 2 0 000-4z"/></symbol>

<symbol viewBox="0 0 16 16" class="hbi hbi-person" id="person" xmlns="http://www.w3.org/2000/svg"><path d="M10 5a2 2 0 11-4 0 2 2 0 014 0zM8 8a3 3 0 100-6 3 3 0 000 6zm6 5c0 1-1 1-1 1H3s-1 0-1-1 1-4 6-4 6 3 6 4zm-1-.004c-.001-.246-.154-.986-.832-1.664C11.516 10.68 10.289 10 8 10c-2.29 0-3.516.68-4.168 1.332-.678.678-.83 1.418-.832 1.664h10z"/></symbol>

</svg>