<svg width="15" height="25" viewBox="0 0 15 25" fill="white" xmlns="http://www.w3.org/2000/svg">
<g clip-path="url(#clip0_4212_63)">
<path d="M13.2943 24.9839H12.7108C12.4832 24.9839 12.265 24.8953 12.104 24.7376C11.9431 24.5799 11.8527 24.366 11.8527 24.143V17.1237H3.10422V24.143C3.10422 24.366 3.01382 24.5799 2.8529 24.7376C2.69198 24.8953 2.47373 24.9839 2.24616 24.9839H1.67411C1.44653 24.9839 1.22828 24.8953 1.06736 24.7376C0.906443 24.5799 0.81604 24.366 0.81604 24.143V7.97778L3.10422 9.47283V15.2895H11.8518V9.47283L14.1523 7.97778V24.143C14.1523 24.366 14.0619 24.5799 13.901 24.7376C13.7401 24.8953 13.5218 24.9839 13.2943 24.9839Z" fill="white"/>
<path d="M0.0953369 4.19361L7.48427 8.38722L14.8732 4.19361L7.48427 0L0.0953369 4.19361Z" fill="white"/>
</g>
<defs>
<clipPath id="clip0_4212_63">
<rect width="15" height="25" fill="white"/>
</clipPath>
</defs>
</svg>
